# 3ds Max Wavefront OBJ Exporter v0.97b - (c)2007 guruware
# File Created: 29.05.2015 17:55:52

mtllib cross_4.mtl

#
# object mesh_4
#

v  -2.538713455200 -25.861671447754 1.830388426781
v  -0.950759887695 -25.986137390137 -1.561425209045
v  2.538714170456 -25.861667633057 -1.830387830734
v  0.950761139393 -25.986137390137 1.561425566673
v  -0.950760126114 25.986137390137 1.561425447464
v  2.538714647293 25.861669540405 1.830388307571
v  0.950761318207 25.986137390137 -1.561425328255
v  -2.538713216782 25.861671447754 -1.830388307571
v  -2.247107505798 -0.707230567932 25.943624496460
v  0.758554935455 -2.277611732483 25.939514160156
v  2.247105836868 0.707230567932 25.943624496460
v  -0.758557140827 2.277611255646 25.939514160156
v  25.865570068359 -2.592398166656 1.694955825806
v  25.983352661133 -0.849158287048 -1.663022279739
v  25.865573883057 2.592400550842 -1.694956660271
v  25.983352661133 0.849158763885 1.663021564484
v  2.247106313705 -0.707230567932 -25.943624496460
v  -0.758555710316 -2.277611970901 -25.939514160156
v  -2.247107267380 0.707229614258 -25.943624496460
v  0.758554875851 2.277610301971 -25.939514160156
v  -25.865573883057 -2.592398166656 -1.694955825806
v  -25.983352661133 -0.849157810211 1.663021683693
v  -25.865577697754 2.592400550842 1.694956064224
v  -25.983352661133 0.849159717560 -1.663021326065
v  -14.060528755188 -16.043863296509 -14.950496673584
v  -9.144843101501 -22.604156494141 -9.167625427246
v  -10.593309402466 -21.300289154053 10.616064071655
v  -15.901371955872 -13.960358619690 15.194608688354
v  15.901371955872 -13.960355758667 -15.194607734680
v  10.593312263489 -21.300289154053 -10.616063117981
v  14.060533523560 -16.043863296509 14.950491905212
v  9.144845008850 -22.604154586792 9.167624473572
v  15.901371955872 13.960357666016 15.194604873657
v  10.593310356140 21.300289154053 10.616063117981
v  -9.144842147827 22.604158401489 9.167623519897
v  -14.060528755188 16.043865203857 14.950492858887
v  14.060532569885 16.043863296509 -14.950490951538
v  9.144843101501 22.604156494141 -9.167624473572
v  -15.901371955872 13.960361480713 -15.194608688354
v  -10.593307495117 21.300289154053 -10.616062164307
v  9.300543785095 -10.453691482544 21.973657608032
v  -10.429888725281 -9.096861839294 22.070022583008
v  10.429890632629 9.096862792969 22.070020675659
v  -9.300540924072 10.453693389893 21.973657608032
v  22.546066284180 -8.794070243835 -9.641605377197
v  21.333595275879 -11.094207763672 10.020852088928
v  21.333595275879 11.094209671021 -10.020853042603
v  22.546066284180 8.794071197510 9.641603469849
v  -9.300540924072 -10.453690528870 -21.973657608032
v  10.429889678955 -9.096859931946 -22.070020675659
v  -10.429888725281 9.096860885620 -22.070022583008
v  9.300542831421 10.453691482544 -21.973657608032
v  -22.546066284180 -8.794070243835 9.641605377197
v  -21.333599090576 -11.094209671021 -10.020855903625
v  -21.333595275879 11.094211578369 10.020854949951
v  -22.546066284180 8.794069290161 -9.641607284546
# 56 vertices

vn -0.001491887495 -0.999996721745 -0.002070257440
vn 0.039846975356 -0.997676253319 0.055265970528
vn 0.001492927899 -0.999996721745 0.002069626469
vn -0.039845939726 -0.997676253319 -0.055266600102
vn 0.001893473440 0.999997556210 0.001152946381
vn 0.034043394029 0.999205350876 0.020729210228
vn -0.001892955159 0.999997556210 -0.001152633573
vn -0.034042872488 0.999205410480 -0.020728897303
vn -0.000005463165 0.000017358261 1.000000000000
vn 0.000514094194 -0.001633448061 0.999998509884
vn 0.000005463038 -0.000017357974 1.000000000000
vn -0.000514094310 0.001633448526 0.999998509884
vn 0.999994456768 -0.001822824590 -0.002786846366
vn 0.997993826866 0.034645557404 0.052990760654
vn 0.999994456768 0.001821723883 0.002787413774
vn 0.997993826866 -0.034646671265 -0.052990220487
vn 0.000005463038 0.000017357899 -1.000000000000
vn -0.000514093961 -0.001633448526 -0.999998509884
vn -0.000005462929 -0.000017357537 -1.000000000000
vn 0.000514094136 0.001633449225 -0.999998509884
vn -0.999994456768 -0.001822744147 0.002786719473
vn -0.997993946075 0.034644443542 -0.052989069372
vn -0.999994456768 0.001821631333 -0.002787275007
vn -0.997993946075 -0.034645553678 0.052988510579
vn -0.804973065853 -0.593173444271 -0.012788342312
vn 0.013450642116 -0.597833931446 -0.801507174969
vn 0.804973125458 -0.593173444271 0.012788274325
vn -0.013450456783 -0.597833871841 0.801507115364
vn 0.013450604863 0.597833752632 0.801507174969
vn 0.804973006248 0.593173503876 -0.012788279913
vn -0.013450467959 0.597833991051 -0.801507174969
vn -0.804972946644 0.593173623085 0.012788296677
vn -0.051045496017 -0.796879708767 0.601977765560
vn 0.802917897701 -0.052204638720 0.593799233437
vn 0.051045652479 0.796879768372 0.601977586746
vn -0.802917838097 0.052204787731 0.593799293041
vn 0.588606238365 -0.807661831379 -0.035000830889
vn 0.600922524929 0.034612279385 -0.798557579517
vn 0.588606119156 0.807661890984 0.035000812262
vn 0.600922524929 -0.034612193704 0.798557519913
vn 0.051045652479 -0.796879589558 -0.601977825165
vn -0.802917838097 -0.052204739302 -0.593799471855
vn -0.051045451313 0.796879589558 -0.601977765560
vn 0.802917897701 0.052204709500 -0.593799352646
vn -0.588605999947 -0.807661890984 0.035000823438
vn -0.600922465324 0.034612264484 0.798557579517
vn -0.588606297970 0.807661771774 -0.035000786185
vn -0.600922346115 -0.034612175077 -0.798557698727
vn -0.439318180084 -0.898328900337 -0.002193755005
vn 0.023071978241 -0.899588346481 -0.436129003763
vn 0.439318001270 -0.898328959942 0.002193663036
vn -0.023071691394 -0.899588286877 0.436129271984
vn 0.023071933538 0.899588286877 0.436128973961
vn 0.439318120480 0.898328900337 -0.002193690976
vn -0.023071801290 0.899588227272 -0.436129212379
vn -0.439318180084 0.898328959942 0.002193652326
vn -0.051129359752 -0.428100079298 0.902283787727
vn 0.424375802279 -0.053329084069 0.903914332390
vn 0.051129452884 0.428100109100 0.902283847332
vn -0.424375891685 0.053329162300 0.903914332390
vn 0.899441242218 -0.436345249414 -0.024666067213
vn 0.898158729076 0.043501269072 -0.437514066696
vn 0.899441063404 0.436345368624 0.024666303769
vn 0.898158669472 -0.043501410633 0.437513887882
vn 0.051129478961 -0.428100228310 -0.902283847332
vn -0.424375891685 -0.053329195827 -0.903914332390
vn -0.051129363477 0.428099989891 -0.902283787727
vn 0.424375832081 0.053329098970 -0.903914391994
vn -0.899441242218 -0.436345130205 0.024666393176
vn -0.898158729076 0.043501075357 0.437514185905
vn -0.899440944195 0.436345577240 -0.024666545913
vn -0.898158848286 -0.043501105160 -0.437513709068
# 72 vertex normals

vt 1.000000000000 0.000000000000 0.000000000000
vt 1.000000000000 1.000000000000 0.000000000000
vt 0.000000000000 1.000000000000 0.000000000000
vt 0.000000000000 0.000000000000 0.000000000000
# 4 texture coords

g mesh_4
usemtl cube
s 2
f 1/1/1 2/2/2 3/3/3 4/4/4 
s 4
f 5/4/5 6/1/6 7/2/7 8/3/8 
s 8
f 9/4/9 10/1/10 11/2/11 12/3/12 
s 16
f 13/4/13 14/1/14 15/2/15 16/3/16 
s 32
f 17/4/17 18/1/18 19/2/19 20/3/20 
s 64
f 21/4/21 22/1/22 23/2/23 24/3/24 
s off
f 25/2/25 26/2/25 27/1/25 28/1/25 
f 29/3/26 30/3/26 26/2/26 25/2/26 
f 31/4/27 32/4/27 30/3/27 29/3/27 
f 28/1/28 27/1/28 32/4/28 31/4/28 
f 33/1/29 34/1/29 35/4/29 36/4/29 
f 37/2/30 38/2/30 34/1/30 33/1/30 
f 39/3/31 40/3/31 38/2/31 37/2/31 
f 36/4/32 35/4/32 40/3/32 39/3/32 
f 31/1/33 41/1/33 42/4/33 28/4/33 
f 33/2/34 43/2/34 41/1/34 31/1/34 
f 36/3/35 44/3/35 43/2/35 33/2/35 
f 28/4/36 42/4/36 44/3/36 36/3/36 
f 29/1/37 45/1/37 46/4/37 31/4/37 
f 37/2/38 47/2/38 45/1/38 29/1/38 
f 33/3/39 48/3/39 47/2/39 37/2/39 
f 31/4/40 46/4/40 48/3/40 33/3/40 
f 25/1/41 49/1/41 50/4/41 29/4/41 
f 39/2/42 51/2/42 49/1/42 25/1/42 
f 37/3/43 52/3/43 51/2/43 39/2/43 
f 29/4/44 50/4/44 52/3/44 37/3/44 
f 28/1/45 53/1/45 54/4/45 25/4/45 
f 36/2/46 55/2/46 53/1/46 28/1/46 
f 39/3/47 56/3/47 55/2/47 36/2/47 
f 25/4/48 54/4/48 56/3/48 39/3/48 
f 2/2/49 1/1/49 27/1/49 26/2/49 
f 3/3/50 2/2/50 26/2/50 30/3/50 
f 4/4/51 3/3/51 30/3/51 32/4/51 
f 1/1/52 4/4/52 32/4/52 27/1/52 
f 6/1/53 5/4/53 35/4/53 34/1/53 
f 7/2/54 6/1/54 34/1/54 38/2/54 
f 8/3/55 7/2/55 38/2/55 40/3/55 
f 5/4/56 8/3/56 40/3/56 35/4/56 
f 10/1/57 9/4/57 42/4/57 41/1/57 
f 11/2/58 10/1/58 41/1/58 43/2/58 
f 12/3/59 11/2/59 43/2/59 44/3/59 
f 9/4/60 12/3/60 44/3/60 42/4/60 
f 14/1/61 13/4/61 46/4/61 45/1/61 
f 15/2/62 14/1/62 45/1/62 47/2/62 
f 16/3/63 15/2/63 47/2/63 48/3/63 
f 13/4/64 16/3/64 48/3/64 46/4/64 
f 18/1/65 17/4/65 50/4/65 49/1/65 
f 19/2/66 18/1/66 49/1/66 51/2/66 
f 20/3/67 19/2/67 51/2/67 52/3/67 
f 17/4/68 20/3/68 52/3/68 50/4/68 
f 22/1/69 21/4/69 54/4/69 53/1/69 
f 23/2/70 22/1/70 53/1/70 55/2/70 
f 24/3/71 23/2/71 55/2/71 56/3/71 
f 21/4/72 24/3/72 56/3/72 54/4/72 
# 54 polygons

