# 3ds Max Wavefront OBJ Exporter v0.97b - (c)2007 guruware
# File Created: 29.05.2015 17:55:24

mtllib cross_2.mtl

#
# object mesh_2
#

v  -8.030238151550 -18.584815979004 5.856300830841
v  -4.034180641174 -19.431037902832 -7.094823360443
v  8.030238151550 -18.584815979004 -5.856300830841
v  4.034180641174 -19.431037902832 7.094822883606
v  -4.034180641174 19.431039810181 7.094822883606
v  8.030237197876 18.584815979004 5.856300354004
v  4.034180641174 19.431039810181 -7.094823360443
v  -8.030239105225 18.584815979004 -5.856300830841
v  -8.060893058777 -4.540228366852 18.936332702637
v  4.595502376556 -7.427004814148 19.180648803711
v  8.060893058777 4.540228843689 18.936332702637
v  -4.595502376556 7.427004814148 19.180648803711
v  18.407028198242 -7.971510887146 6.466272830963
v  19.562158584595 -5.106125831604 -5.951956748962
v  18.407028198242 7.971511840820 -6.466272354126
v  19.562158584595 5.106126785278 5.951957702637
v  8.060893058777 -4.540227890015 -18.936332702637
v  -4.595502376556 -7.427004814148 -19.180648803711
v  -8.060894012451 4.540228843689 -18.936332702637
v  4.595502376556 7.427004814148 -19.180648803711
v  -18.407028198242 -7.971510887146 -6.466272354126
v  -19.562158584595 -5.106125354767 5.951956748962
v  -18.407028198242 7.971510887146 6.466272830963
v  -19.562158584595 5.106125831604 -5.951956272125
v  -4.524850845337 -5.364076137543 -5.074683666229
v  -3.900258541107 -10.334113121033 -5.290946006775
v  -5.898134231567 -9.607608795166 4.786006450653
v  -5.433757781982 -4.606781482697 4.924615383148
v  5.433757781982 -4.606781482697 -4.924615383148
v  5.898133277893 -9.607608795166 -4.786006450653
v  4.524850845337 -5.364076137543 5.074683666229
v  3.900258541107 -10.334113121033 5.290945529938
v  5.433757305145 4.606781005859 4.924615383148
v  5.898133754730 9.607608795166 4.786006450653
v  -3.900258541107 10.334113121033 5.290945529938
v  -4.524851322174 5.364076614380 5.074683666229
v  4.524850368500 5.364075660706 -5.074683666229
v  3.900258541107 10.334113121033 -5.290946006775
v  -5.433758258820 4.606781005859 -4.924615383148
v  -5.898133754730 9.607608795166 -4.786006450653
v  4.070396423340 -5.638692855835 10.081518173218
v  -5.888211727142 -4.124214649200 9.915636062622
v  5.888211250305 4.124214172363 9.915636062622
v  -4.070396900177 5.638692855835 10.081518173218
v  10.413062095642 -4.290543556213 -4.812417507172
v  9.504155158997 -5.800807952881 5.101143836975
v  9.504155158997 5.800807952881 -5.101143360138
v  10.413062095642 4.290542602539 4.812417507172
v  -4.070397377014 -5.638692855835 -10.081518173218
v  5.888211727142 -4.124214649200 -9.915636062622
v  -5.888212203979 4.124214172363 -9.915636062622
v  4.070396900177 5.638692855835 -10.081518173218
v  -10.413062095642 -4.290543556213 4.812417984009
v  -9.504155158997 -5.800807952881 -5.101143360138
v  -9.504155158997 5.800807952881 5.101143360138
v  -10.413062095642 4.290544509888 -4.812417507172
# 56 vertices

vn -0.004061463755 -0.999976217747 -0.005569125526
vn 0.061154574156 -0.994599580765 0.083855979145
vn 0.004061462823 -0.999976217747 0.005569138099
vn -0.061154585332 -0.994599580765 -0.083855986595
vn 0.005680463277 0.999978661537 0.003229962196
vn 0.074218340218 0.996348679066 0.042201220989
vn -0.005680456758 0.999978661537 -0.003229958005
vn -0.074218340218 0.996348679066 -0.042201217264
vn 0.000352003204 -0.000624959473 0.999999761581
vn -0.013734376989 0.024384530261 0.999608278275
vn -0.000352002593 0.000624959473 0.999999761581
vn 0.013734379783 -0.024384532124 0.999608278275
vn 0.999997377396 0.001436877064 0.001771353884
vn 0.989316940308 0.091837599874 0.113215819001
vn 0.999997377396 -0.001436871360 -0.001771353884
vn 0.989316940308 -0.091837584972 -0.113215826452
vn -0.000352002564 -0.000624959415 -0.999999761581
vn 0.013734376989 0.024384533986 -0.999608278275
vn 0.000352003815 0.000624961918 -0.999999761581
vn -0.013734376989 -0.024384533986 -0.999608278275
vn -0.999997377396 0.001436874270 -0.001771353884
vn -0.989316940308 0.091837599874 -0.113215826452
vn -0.999997377396 -0.001436874270 0.001771353884
vn -0.989316940308 -0.091837599874 0.113215826452
vn -0.989735484123 -0.010831759311 -0.142500385642
vn 0.032284434885 0.011309417896 -0.999414741993
vn 0.989735484123 -0.010831868276 0.142500326037
vn -0.032284412533 0.011309370399 0.999414801598
vn 0.032284412533 -0.011309371330 0.999414801598
vn 0.989735484123 0.010831710882 -0.142500370741
vn -0.032284431159 -0.011309416033 -0.999414682388
vn -0.989735484123 0.010831915773 0.142500355840
vn -0.113481916487 -0.993486166000 0.010347303934
vn 0.990512490273 -0.137030631304 -0.010377905332
vn 0.113481990993 0.993486166000 0.010347350501
vn -0.990512371063 0.137030616403 -0.010377896950
vn -0.010431482457 -0.993417203426 -0.114076755941
vn 0.010190570727 -0.020942386240 -0.999728739262
vn -0.010431482457 0.993417084217 0.114076793194
vn 0.010190526955 0.020942416042 0.999728739262
vn 0.113481916487 -0.993486225605 -0.010347316973
vn -0.990512490273 -0.137030690908 0.010378008708
vn -0.113481931388 0.993486225605 -0.010347272269
vn 0.990512490273 0.137030690908 0.010378011502
vn 0.010431493632 -0.993417143822 0.114076755941
vn -0.010190521367 -0.020942365751 0.999728739262
vn 0.010431579314 0.993417263031 -0.114076778293
vn -0.010190568864 0.020942389965 -0.999728798866
vn -0.957270920277 0.130491599441 -0.258078247309
vn 0.066697999835 0.163886025548 -0.984221875668
vn 0.957270920277 0.130491644144 0.258078217506
vn -0.066697955132 0.163886010647 0.984221875668
vn 0.066697962582 -0.163885965943 0.984221875668
vn 0.957270920277 -0.130491584539 -0.258078187704
vn -0.066697977483 -0.163885995746 -0.984221935272
vn -0.957270801067 -0.130491659045 0.258078277111
vn -0.186907961965 -0.973006665707 -0.135363802314
vn 0.958385467529 -0.236041352153 -0.160566627979
vn 0.186907961965 0.973006665707 -0.135363847017
vn -0.958385467529 0.236041337252 -0.160566613078
vn -0.157300934196 -0.966278314590 -0.203869447112
vn -0.133877933025 -0.046237442642 -0.989918649197
vn -0.157301068306 0.966278254986 0.203869491816
vn -0.133877977729 0.046237442642 0.989918529987
vn 0.186907976866 -0.973006725311 0.135363772511
vn -0.958385467529 -0.236041396856 0.160566583276
vn -0.186907917261 0.973006665707 0.135363832116
vn 0.958385467529 0.236041337252 0.160566613078
vn 0.157300904393 -0.966278314590 0.203869476914
vn 0.133877933025 -0.046237442642 0.989918649197
vn 0.157300859690 0.966278254986 -0.203869417310
vn 0.133877903223 0.046237461269 -0.989918649197
# 72 vertex normals

vt 1.000000000000 0.000000000000 0.000000000000
vt 1.000000000000 1.000000000000 0.000000000000
vt 0.000000000000 1.000000000000 0.000000000000
vt 0.000000000000 0.000000000000 0.000000000000
# 4 texture coords

g mesh_2
usemtl cube
s 2
f 1/1/1 2/2/2 3/3/3 4/4/4 
s 4
f 5/4/5 6/1/6 7/2/7 8/3/8 
s 8
f 9/4/9 10/1/10 11/2/11 12/3/12 
s 16
f 13/4/13 14/1/14 15/2/15 16/3/16 
s 32
f 17/4/17 18/1/18 19/2/19 20/3/20 
s 64
f 21/4/21 22/1/22 23/2/23 24/3/24 
s off
f 25/2/25 26/2/25 27/1/25 28/1/25 
f 29/3/26 30/3/26 26/2/26 25/2/26 
f 31/4/27 32/4/27 30/3/27 29/3/27 
f 28/1/28 27/1/28 32/4/28 31/4/28 
f 33/1/29 34/1/29 35/4/29 36/4/29 
f 37/2/30 38/2/30 34/1/30 33/1/30 
f 39/3/31 40/3/31 38/2/31 37/2/31 
f 36/4/32 35/4/32 40/3/32 39/3/32 
f 31/1/33 41/1/33 42/4/33 28/4/33 
f 33/2/34 43/2/34 41/1/34 31/1/34 
f 36/3/35 44/3/35 43/2/35 33/2/35 
f 28/4/36 42/4/36 44/3/36 36/3/36 
f 29/1/37 45/1/37 46/4/37 31/4/37 
f 37/2/38 47/2/38 45/1/38 29/1/38 
f 33/3/39 48/3/39 47/2/39 37/2/39 
f 31/4/40 46/4/40 48/3/40 33/3/40 
f 25/1/41 49/1/41 50/4/41 29/4/41 
f 39/2/42 51/2/42 49/1/42 25/1/42 
f 37/3/43 52/3/43 51/2/43 39/2/43 
f 29/4/44 50/4/44 52/3/44 37/3/44 
f 28/1/45 53/1/45 54/4/45 25/4/45 
f 36/2/46 55/2/46 53/1/46 28/1/46 
f 39/3/47 56/3/47 55/2/47 36/2/47 
f 25/4/48 54/4/48 56/3/48 39/3/48 
f 2/2/49 1/1/49 27/1/49 26/2/49 
f 3/3/50 2/2/50 26/2/50 30/3/50 
f 4/4/51 3/3/51 30/3/51 32/4/51 
f 1/1/52 4/4/52 32/4/52 27/1/52 
f 6/1/53 5/4/53 35/4/53 34/1/53 
f 7/2/54 6/1/54 34/1/54 38/2/54 
f 8/3/55 7/2/55 38/2/55 40/3/55 
f 5/4/56 8/3/56 40/3/56 35/4/56 
f 10/1/57 9/4/57 42/4/57 41/1/57 
f 11/2/58 10/1/58 41/1/58 43/2/58 
f 12/3/59 11/2/59 43/2/59 44/3/59 
f 9/4/60 12/3/60 44/3/60 42/4/60 
f 14/1/61 13/4/61 46/4/61 45/1/61 
f 15/2/62 14/1/62 45/1/62 47/2/62 
f 16/3/63 15/2/63 47/2/63 48/3/63 
f 13/4/64 16/3/64 48/3/64 46/4/64 
f 18/1/65 17/4/65 50/4/65 49/1/65 
f 19/2/66 18/1/66 49/1/66 51/2/66 
f 20/3/67 19/2/67 51/2/67 52/3/67 
f 17/4/68 20/3/68 52/3/68 50/4/68 
f 22/1/69 21/4/69 54/4/69 53/1/69 
f 23/2/70 22/1/70 53/1/70 55/2/70 
f 24/3/71 23/2/71 55/2/71 56/3/71 
f 21/4/72 24/3/72 56/3/72 54/4/72 
# 54 polygons

