# 3ds Max Wavefront OBJ Exporter v0.97b - (c)2007 guruware
# File Created: 29.05.2015 17:56:06

mtllib cross_5.mtl

#
# object mesh_5
#

v  -4.885964393616 -19.250659942627 6.830824851990
v  -7.178454399109 -18.765193939209 -6.120299339294
v  4.885964393616 -19.250659942627 -6.830824375153
v  7.178454399109 -18.765193939209 6.120299339294
v  -7.178454875946 18.765193939209 6.120299339294
v  4.885963916779 19.250661849976 6.830824851990
v  7.178453922272 18.765193939209 -6.120298862457
v  -4.885964870453 19.250661849976 -6.830824375153
v  -5.334171295166 -6.811670780182 19.128572463989
v  7.322224140167 -5.155561923981 18.988409042358
v  5.334171772003 6.811671257019 19.128572463989
v  -7.322224617004 5.155562400818 18.988409042358
v  19.315935134888 -5.716899871826 6.061586380005
v  18.653251647949 -7.360736846924 -6.356643199921
v  19.315935134888 5.716900825500 -6.061586856842
v  18.653251647949 7.360737800598 6.356643199921
v  5.334171295166 -6.811670780182 -19.128572463989
v  -7.322224140167 -5.155562400818 -18.988409042358
v  -5.334171772003 6.811671257019 -19.128572463989
v  7.322223663330 5.155562400818 -18.988409042358
v  -19.315935134888 -5.716899394989 -6.061586380005
v  -18.653251647949 -7.360736846924 6.356642723083
v  -19.315935134888 5.716899871826 6.061585903168
v  -18.653251647949 7.360736846924 -6.356643199921
v  -5.433757781982 -4.606781482697 -4.924615383148
v  -5.898134231567 -9.607608795166 -4.786006450653
v  -3.900258541107 -10.334113121033 5.290946006775
v  -4.524850845337 -5.364076137543 5.074683666229
v  4.524850845337 -5.364076137543 -5.074683666229
v  3.900258541107 -10.334113121033 -5.290945529938
v  5.433757781982 -4.606781482697 4.924615383148
v  5.898133277893 -9.607608795166 4.786006450653
v  4.524850368500 5.364075660706 5.074683666229
v  3.900258541107 10.334113121033 5.290946006775
v  -5.898133754730 9.607608795166 4.786006450653
v  -5.433758258820 4.606781005859 4.924615383148
v  5.433757305145 4.606781005859 -4.924615383148
v  5.898133754730 9.607608795166 -4.786006450653
v  -4.524851322174 5.364076614380 -5.074683666229
v  -3.900258541107 10.334113121033 -5.290945529938
v  5.888211727142 -4.124214649200 9.915636062622
v  -4.070397377014 -5.638692855835 10.081518173218
v  4.070396900177 5.638692855835 10.081518173218
v  -5.888212203979 4.124214172363 9.915636062622
v  9.504155158997 -5.800807952881 -5.101143836975
v  10.413062095642 -4.290543556213 4.812417507172
v  10.413062095642 4.290542602539 -4.812417507172
v  9.504155158997 5.800807952881 5.101143360138
v  -5.888211727142 -4.124214649200 -9.915636062622
v  4.070396423340 -5.638692855835 -10.081518173218
v  -4.070396900177 5.638692855835 -10.081518173218
v  5.888211250305 4.124214172363 -9.915636062622
v  -9.504155158997 -5.800807952881 5.101143360138
v  -10.413062095642 -4.290543556213 -4.812417984009
v  -10.413062095642 4.290544509888 4.812417507172
v  -9.504155158997 5.800807952881 -5.101143360138
# 56 vertices

vn 0.002362132538 -0.999995768070 0.001689589117
vn -0.041953239590 -0.998668849468 -0.030008388683
vn -0.002362132538 -0.999995768070 -0.001689589117
vn 0.041953239590 -0.998668849468 0.030008388683
vn -0.001944812131 0.999995529652 -0.002281054854
vn -0.037576440722 0.998321354389 -0.044073130935
vn 0.001944812131 0.999995529652 0.002281054854
vn 0.037576440722 0.998321354389 0.044073130935
vn -0.000404497318 0.000316758757 0.999999880791
vn 0.012337348424 -0.009661289863 0.999877214432
vn 0.000404497870 -0.000316759309 0.999999880791
vn -0.012337346561 0.009661288932 0.999877214432
vn 0.999998033047 -0.001451247837 -0.001368721947
vn 0.997682213783 -0.049502223730 -0.046687327325
vn 0.999998033047 0.001451247837 0.001368721947
vn 0.997682213783 0.049502223730 0.046687327325
vn 0.000404497870 0.000316759018 -0.999999880791
vn -0.012337347493 -0.009661289863 -0.999877214432
vn -0.000404497870 -0.000316759309 -0.999999880791
vn 0.012337348424 0.009661289863 -0.999877214432
vn -0.999998033047 -0.001451247837 0.001368719735
vn -0.997682213783 -0.049502227455 0.046687327325
vn -0.999998033047 0.001451247837 -0.001368724043
vn -0.997682213783 0.049502227455 -0.046687331051
vn -0.989735484123 -0.010831767693 0.142500385642
vn -0.032284416258 0.011309370399 -0.999414801598
vn 0.989735484123 -0.010831869207 -0.142500355840
vn 0.032284431159 0.011309416033 0.999414682388
vn -0.032284434885 -0.011309416033 0.999414682388
vn 0.989735484123 0.010831718333 0.142500370741
vn 0.032284416258 -0.011309371330 -0.999414801598
vn -0.989735484123 0.010831916705 -0.142500355840
vn 0.113481916487 -0.993486225605 0.010347311385
vn 0.990512490273 0.137030690908 -0.010378011502
vn -0.113481953740 0.993486225605 0.010347272269
vn -0.990512490273 -0.137030690908 -0.010378004052
vn -0.010431475006 -0.993417203426 0.114076755941
vn 0.010190526955 0.020942416042 -0.999728739262
vn -0.010431482457 0.993417084217 -0.114076815546
vn 0.010190570727 -0.020942388102 0.999728739262
vn -0.113481916487 -0.993486166000 -0.010347303934
vn -0.990512371063 0.137030616403 0.010377896950
vn 0.113481990993 0.993486166000 -0.010347341187
vn 0.990512490273 -0.137030631304 0.010377905332
vn 0.010431493632 -0.993417143822 -0.114076755941
vn -0.010190568864 0.020942389965 0.999728798866
vn 0.010431579314 0.993417263031 0.114076785743
vn -0.010190522298 -0.020942369476 -0.999728798866
vn -0.974262714386 0.124286264181 0.188056290150
vn -0.046102933586 0.157613918185 -0.986424088478
vn 0.974262654781 0.124286308885 -0.188056245446
vn 0.046102978289 0.157613918185 0.986424088478
vn -0.046102955937 -0.157613888383 0.986424028873
vn 0.974262714386 -0.124286219478 0.188056290150
vn 0.046102937311 -0.157613858581 -0.986424028873
vn -0.974262714386 -0.124286331236 -0.188056290150
vn 0.136217400432 -0.983274400234 -0.120897732675
vn 0.974045515060 0.172658085823 -0.146371260285
vn -0.136217400432 0.983274459839 -0.120897799730
vn -0.974045515060 -0.172658115625 -0.146371185780
vn -0.161332741380 -0.975565910339 0.149140864611
vn -0.137101963162 0.034243725240 -0.989964902401
vn -0.161332905293 0.975565910339 -0.149140909314
vn -0.137101948261 -0.034243721515 0.989964842796
vn -0.136217385530 -0.983274400234 0.120897755027
vn -0.974045455456 0.172658056021 0.146371230483
vn 0.136217400432 0.983274281025 0.120897799730
vn 0.974045515060 -0.172658085823 0.146371230483
vn 0.161332711577 -0.975565791130 -0.149140894413
vn 0.137101873755 0.034243717790 0.989964842796
vn 0.161332666874 0.975565791130 0.149140805006
vn 0.137101918459 -0.034243702888 -0.989964842796
# 72 vertex normals

vt 1.000000000000 0.000000000000 0.000000000000
vt 1.000000000000 1.000000000000 0.000000000000
vt 0.000000000000 1.000000000000 0.000000000000
vt 0.000000000000 0.000000000000 0.000000000000
# 4 texture coords

g mesh_5
usemtl cube
s 2
f 1/1/1 2/2/2 3/3/3 4/4/4 
s 4
f 5/4/5 6/1/6 7/2/7 8/3/8 
s 8
f 9/4/9 10/1/10 11/2/11 12/3/12 
s 16
f 13/4/13 14/1/14 15/2/15 16/3/16 
s 32
f 17/4/17 18/1/18 19/2/19 20/3/20 
s 64
f 21/4/21 22/1/22 23/2/23 24/3/24 
s off
f 25/2/25 26/2/25 27/1/25 28/1/25 
f 29/3/26 30/3/26 26/2/26 25/2/26 
f 31/4/27 32/4/27 30/3/27 29/3/27 
f 28/1/28 27/1/28 32/4/28 31/4/28 
f 33/1/29 34/1/29 35/4/29 36/4/29 
f 37/2/30 38/2/30 34/1/30 33/1/30 
f 39/3/31 40/3/31 38/2/31 37/2/31 
f 36/4/32 35/4/32 40/3/32 39/3/32 
f 31/1/33 41/1/33 42/4/33 28/4/33 
f 33/2/34 43/2/34 41/1/34 31/1/34 
f 36/3/35 44/3/35 43/2/35 33/2/35 
f 28/4/36 42/4/36 44/3/36 36/3/36 
f 29/1/37 45/1/37 46/4/37 31/4/37 
f 37/2/38 47/2/38 45/1/38 29/1/38 
f 33/3/39 48/3/39 47/2/39 37/2/39 
f 31/4/40 46/4/40 48/3/40 33/3/40 
f 25/1/41 49/1/41 50/4/41 29/4/41 
f 39/2/42 51/2/42 49/1/42 25/1/42 
f 37/3/43 52/3/43 51/2/43 39/2/43 
f 29/4/44 50/4/44 52/3/44 37/3/44 
f 28/1/45 53/1/45 54/4/45 25/4/45 
f 36/2/46 55/2/46 53/1/46 28/1/46 
f 39/3/47 56/3/47 55/2/47 36/2/47 
f 25/4/48 54/4/48 56/3/48 39/3/48 
f 2/2/49 1/1/49 27/1/49 26/2/49 
f 3/3/50 2/2/50 26/2/50 30/3/50 
f 4/4/51 3/3/51 30/3/51 32/4/51 
f 1/1/52 4/4/52 32/4/52 27/1/52 
f 6/1/53 5/4/53 35/4/53 34/1/53 
f 7/2/54 6/1/54 34/1/54 38/2/54 
f 8/3/55 7/2/55 38/2/55 40/3/55 
f 5/4/56 8/3/56 40/3/56 35/4/56 
f 10/1/57 9/4/57 42/4/57 41/1/57 
f 11/2/58 10/1/58 41/1/58 43/2/58 
f 12/3/59 11/2/59 43/2/59 44/3/59 
f 9/4/60 12/3/60 44/3/60 42/4/60 
f 14/1/61 13/4/61 46/4/61 45/1/61 
f 15/2/62 14/1/62 45/1/62 47/2/62 
f 16/3/63 15/2/63 47/2/63 48/3/63 
f 13/4/64 16/3/64 48/3/64 46/4/64 
f 18/1/65 17/4/65 50/4/65 49/1/65 
f 19/2/66 18/1/66 49/1/66 51/2/66 
f 20/3/67 19/2/67 51/2/67 52/3/67 
f 17/4/68 20/3/68 52/3/68 50/4/68 
f 22/1/69 21/4/69 54/4/69 53/1/69 
f 23/2/70 22/1/70 53/1/70 55/2/70 
f 24/3/71 23/2/71 55/2/71 56/3/71 
f 21/4/72 24/3/72 56/3/72 54/4/72 
# 54 polygons

