# 3ds Max Wavefront OBJ Exporter v0.97b - (c)2007 guruware
# File Created: 29.05.2015 17:56:29

mtllib cross_8.mtl

#
# object mesh_7
#

v  -1.403517484665 -26.016288757324 1.835188031197
v  -1.923986673355 -25.952623367310 -1.562645316124
v  1.403517484665 -26.016288757324 -1.835187673569
v  1.923986673355 -25.952623367310 1.562645673752
v  -1.923987030983 25.952623367310 1.562645673752
v  1.403517484665 26.016286849976 1.835188031197
v  1.923986673355 25.952623367310 -1.562645316124
v  -1.403517484665 26.016286849976 -1.835187673569
v  -1.416297078133 -1.894604444504 26.050361633301
v  1.952879905701 -1.411150693893 26.034231185913
v  1.416297078133 1.894603729248 26.050361633301
v  -1.952879905701 1.411149024963 26.034231185913
v  25.998296737671 -1.541386604309 1.698137044907
v  25.917085647583 -1.881857872009 -1.662260413170
v  25.998296737671 1.541387557983 -1.698137402534
v  25.917085647583 1.881857872009 1.662259697914
v  1.416297435760 -1.894604444504 -26.050361633301
v  -1.952879190445 -1.411150693893 -26.034231185913
v  -1.416297435760 1.894603729248 -26.050361633301
v  1.952879190445 1.411149978638 -26.034231185913
v  -25.998298645020 -1.541386127472 -1.698137044907
v  -25.917087554932 -1.881857395172 1.662260055542
v  -25.998298645020 1.541387557983 1.698137044907
v  -25.917087554932 1.881858825684 -1.662259697914
v  -4.494807720184 -4.172578334808 -4.298068523407
v  -4.006961345673 -7.988571166992 -3.360107183456
v  -3.128293514252 -8.095619201660 3.873077154160
v  -4.127436161041 -4.469098091125 4.368427276611
v  4.127436161041 -4.469098567963 -4.368428230286
v  3.128293514252 -8.095619201660 -3.873076438904
v  4.494807720184 -4.172578334808 4.298067092896
v  4.006960868835 -7.988571166992 3.360107183456
v  4.127436161041 4.469099044800 4.368427276611
v  3.128293037415 8.095620155334 3.873077154160
v  -4.006961345673 7.988572120667 3.360107183456
v  -4.494807720184 4.172578811646 4.298067092896
v  4.494807720184 4.172578811646 -4.298067569733
v  4.006960868835 7.988572120667 -3.360107183456
v  -4.127436161041 4.469099044800 -4.368428230286
v  -3.128293514252 8.095620155334 -3.873076915741
v  4.076987743378 -3.105352401733 8.048361778259
v  -3.105422735214 -4.000220775604 8.075753211975
v  3.105422496796 4.000221252441 8.075753211975
v  -4.076987743378 3.105353355408 8.048361778259
v  7.963941574097 -3.911738872528 -3.534968852997
v  8.099912643433 -3.349006891251 3.652698993683
v  8.099912643433 3.349007606506 -3.652699232101
v  7.963942050934 3.911739349365 3.534968376160
v  -4.076987743378 -3.105352163315 -8.048361778259
v  3.105422496796 -4.000220775604 -8.075753211975
v  -3.105422735214 4.000221252441 -8.075753211975
v  4.076987266541 3.105353355408 -8.048361778259
v  -7.963942050934 -3.911738872528 3.534968376160
v  -8.099912643433 -3.349006891251 -3.652699232101
v  -8.099912643433 3.349007606506 3.652699232101
v  -7.963941574097 3.911738395691 -3.534968614578
# 56 vertices

vn 0.000389087538 -0.999999880791 0.000297566410
vn -0.020404929295 -0.999670028687 -0.015605309978
vn -0.000389087538 -0.999999880791 -0.000297566410
vn 0.020404929295 -0.999670028687 0.015605309978
vn -0.000314781006 0.999999880791 -0.000387570035
vn -0.017373222858 0.999620258808 -0.021390551701
vn 0.000314782868 0.999999880791 0.000387572509
vn 0.017373224720 0.999620258808 0.021390553564
vn -0.000055653054 0.000041602878 1.000000000000
vn 0.005362797529 -0.004008919001 0.999977588654
vn 0.000055651606 -0.000041602012 1.000000000000
vn -0.005362798925 0.004008919932 0.999977588654
vn 0.999999940395 -0.000212666273 -0.000193032130
vn 0.999477267265 -0.023938750848 -0.021729029715
vn 0.999999940395 0.000212661791 0.000193034371
vn 0.999477267265 0.023938754573 0.021729039028
vn 0.000055651024 0.000041601426 -1.000000000000
vn -0.005362797994 -0.004008919932 -0.999977588654
vn -0.000055651024 -0.000041601426 -1.000000000000
vn 0.005362797994 0.004008919932 -0.999977588654
vn -0.999999940395 -0.000212666273 0.000193035492
vn -0.999477267265 -0.023938752711 0.021729033440
vn -0.999999940395 0.000212662882 -0.000193032101
vn -0.999477267265 0.023938754573 -0.021729033440
vn -0.978896319866 -0.191306665540 0.071859195828
vn -0.041109167039 -0.186225786805 -0.981646537781
vn 0.978896260262 -0.191306740046 -0.071859151125
vn 0.041109234095 -0.186225384474 0.981646716595
vn -0.041109237820 0.186225384474 0.981646716595
vn 0.978896319866 0.191306754947 0.071859188378
vn 0.041109256446 0.186225578189 -0.981646597385
vn -0.978896319866 0.191306665540 -0.071859195828
vn 0.074921965599 -0.977867782116 0.195348978043
vn 0.979753553867 0.082171924412 0.182566925883
vn -0.074921965599 0.977867782116 0.195348963141
vn -0.979753553867 -0.082171909511 0.182566896081
vn 0.181087613106 -0.982319772243 0.047489814460
vn 0.194592162967 -0.009080926888 -0.980842173100
vn 0.181087568402 0.982319772243 -0.047489807010
vn 0.194592073560 0.009080962278 0.980842292309
vn -0.074922002852 -0.977867722511 -0.195349127054
vn -0.979753613472 0.082171916962 -0.182566955686
vn 0.074921973050 0.977867782116 -0.195349007845
vn 0.979753613472 -0.082171887159 -0.182567030191
vn -0.181087553501 -0.982319712639 -0.047489792109
vn -0.194592043757 -0.009080976248 0.980842232704
vn -0.181087672710 0.982319653034 0.047489732504
vn -0.194592326880 0.009081006050 -0.980842113495
vn -0.986135423183 -0.105497665703 0.128090158105
vn -0.076170034707 -0.106717459857 -0.991367459297
vn 0.986135423183 -0.105497643352 -0.128090113401
vn 0.076170116663 -0.106717459857 0.991367578506
vn -0.076170086861 0.106717459857 0.991367578506
vn 0.986135482788 0.105497658253 0.128090187907
vn 0.076170071959 0.106717467308 -0.991367459297
vn -0.986135482788 0.105497665703 -0.128090217710
vn 0.129229202867 -0.985960245132 0.105746150017
vn 0.984159111977 0.142118752003 0.105985745788
vn -0.129229232669 0.985960245132 0.105746254325
vn -0.984159111977 -0.142118722200 0.105985723436
vn 0.106253109872 -0.990897417068 0.082660235465
vn 0.106236658990 -0.016453582793 -0.994204699993
vn 0.106253109872 0.990897417068 -0.082660108805
vn 0.106236688793 0.016453636810 0.994204759598
vn -0.129229217768 -0.985960245132 -0.105746135116
vn -0.984159231186 0.142118647695 -0.105985775590
vn 0.129229158163 0.985960245132 -0.105746217072
vn 0.984159231186 -0.142118602991 -0.105985745788
vn -0.106253117323 -0.990897417068 -0.082660228014
vn -0.106236673892 -0.016453623772 0.994204699993
vn -0.106253035367 0.990897417068 0.082660116255
vn -0.106236681342 0.016453634948 -0.994204759598
# 72 vertex normals

vt 1.000000000000 0.000000000000 0.000000000000
vt 1.000000000000 1.000000000000 0.000000000000
vt 0.000000000000 1.000000000000 0.000000000000
vt 0.000000000000 0.000000000000 0.000000000000
# 4 texture coords

g mesh_7
usemtl cube
s 2
f 1/1/1 2/2/2 3/3/3 4/4/4 
s 4
f 5/4/5 6/1/6 7/2/7 8/3/8 
s 8
f 9/4/9 10/1/10 11/2/11 12/3/12 
s 16
f 13/4/13 14/1/14 15/2/15 16/3/16 
s 32
f 17/4/17 18/1/18 19/2/19 20/3/20 
s 64
f 21/4/21 22/1/22 23/2/23 24/3/24 
s off
f 25/2/25 26/2/25 27/1/25 28/1/25 
f 29/3/26 30/3/26 26/2/26 25/2/26 
f 31/4/27 32/4/27 30/3/27 29/3/27 
f 28/1/28 27/1/28 32/4/28 31/4/28 
f 33/1/29 34/1/29 35/4/29 36/4/29 
f 37/2/30 38/2/30 34/1/30 33/1/30 
f 39/3/31 40/3/31 38/2/31 37/2/31 
f 36/4/32 35/4/32 40/3/32 39/3/32 
f 31/1/33 41/1/33 42/4/33 28/4/33 
f 33/2/34 43/2/34 41/1/34 31/1/34 
f 36/3/35 44/3/35 43/2/35 33/2/35 
f 28/4/36 42/4/36 44/3/36 36/3/36 
f 29/1/37 45/1/37 46/4/37 31/4/37 
f 37/2/38 47/2/38 45/1/38 29/1/38 
f 33/3/39 48/3/39 47/2/39 37/2/39 
f 31/4/40 46/4/40 48/3/40 33/3/40 
f 25/1/41 49/1/41 50/4/41 29/4/41 
f 39/2/42 51/2/42 49/1/42 25/1/42 
f 37/3/43 52/3/43 51/2/43 39/2/43 
f 29/4/44 50/4/44 52/3/44 37/3/44 
f 28/1/45 53/1/45 54/4/45 25/4/45 
f 36/2/46 55/2/46 53/1/46 28/1/46 
f 39/3/47 56/3/47 55/2/47 36/2/47 
f 25/4/48 54/4/48 56/3/48 39/3/48 
f 2/2/49 1/1/49 27/1/49 26/2/49 
f 3/3/50 2/2/50 26/2/50 30/3/50 
f 4/4/51 3/3/51 30/3/51 32/4/51 
f 1/1/52 4/4/52 32/4/52 27/1/52 
f 6/1/53 5/4/53 35/4/53 34/1/53 
f 7/2/54 6/1/54 34/1/54 38/2/54 
f 8/3/55 7/2/55 38/2/55 40/3/55 
f 5/4/56 8/3/56 40/3/56 35/4/56 
f 10/1/57 9/4/57 42/4/57 41/1/57 
f 11/2/58 10/1/58 41/1/58 43/2/58 
f 12/3/59 11/2/59 43/2/59 44/3/59 
f 9/4/60 12/3/60 44/3/60 42/4/60 
f 14/1/61 13/4/61 46/4/61 45/1/61 
f 15/2/62 14/1/62 45/1/62 47/2/62 
f 16/3/63 15/2/63 47/2/63 48/3/63 
f 13/4/64 16/3/64 48/3/64 46/4/64 
f 18/1/65 17/4/65 50/4/65 49/1/65 
f 19/2/66 18/1/66 49/1/66 51/2/66 
f 20/3/67 19/2/67 51/2/67 52/3/67 
f 17/4/68 20/3/68 52/3/68 50/4/68 
f 22/1/69 21/4/69 54/4/69 53/1/69 
f 23/2/70 22/1/70 53/1/70 55/2/70 
f 24/3/71 23/2/71 55/2/71 56/3/71 
f 21/4/72 24/3/72 56/3/72 54/4/72 
# 54 polygons

