# 3ds Max Wavefront OBJ Exporter v0.97b - (c)2007 guruware
# File Created: 19.04.2015 16:24:47

#
# object cube
#

v  12.500000000000 -12.500000000000 -12.500000000000
v  12.500000000000 -12.500000000000 12.500000000000
v  -12.500000000000 -12.500000000000 12.500000000000
v  -12.500000000000 -12.500000000000 -12.500000000000
v  12.500000000000 12.500000000000 -12.500000000000
v  -12.500000000000 12.500000000000 -12.500000000000
v  -12.500000000000 12.500000000000 12.500000000000
v  12.500000000000 12.500000000000 12.500000000000
# 8 vertices

vn 0.000000000000 -1.000000000000 -0.000000000000
vn 0.000000000000 1.000000000000 -0.000000000000
vn 0.000000000000 0.000000000000 1.000000000000
vn 1.000000000000 0.000000000000 -0.000000000000
vn 0.000000000000 0.000000000000 -1.000000000000
vn -1.000000000000 0.000000000000 -0.000000000000
# 6 vertex normals

vt 0.000000000000 1.000000000000 0.000000000000
vt 0.000000000000 0.000000000000 0.000000000000
vt 1.000000000000 0.000000000000 0.000000000000
vt 1.000000000000 1.000000000000 0.000000000000
# 4 texture coords

g cube
s 2
f 1/1/1 2/2/1 3/3/1 
f 3/3/1 4/4/1 1/1/1 
s 4
f 5/4/2 6/1/2 7/2/2 
f 7/2/2 8/3/2 5/4/2 
s 8
f 8/4/3 7/1/3 3/2/3 
f 3/2/3 2/3/3 8/4/3 
s 16
f 5/4/4 8/1/4 2/2/4 
f 2/2/4 1/3/4 5/4/4 
s 32
f 6/4/5 5/1/5 1/2/5 
f 1/2/5 4/3/5 6/4/5 
s 64
f 7/4/6 6/1/6 4/2/6 
f 4/2/6 3/3/6 7/4/6 
# 12 faces

